<svg id="svg" version="1.1" xmlns="http://www.w3.org/2000/svg" xmlns:xlink="http://www.w3.org/1999/xlink" width="400" height="400" viewBox="0, 0, 400,400"><g id="svgg"><path id="path0" d="M198.810 89.700 C 198.321 90.855,195.671 96.840,192.919 103.000 C 190.168 109.160,186.075 118.340,183.822 123.400 C 164.413 167.001,166.360 165.116,137.800 167.987 C 133.400 168.429,125.570 169.231,120.400 169.770 C 87.124 173.235,81.172 173.895,80.917 174.150 C 80.830 174.237,82.239 175.634,84.048 177.254 C 85.857 178.874,91.221 183.714,95.969 188.008 C 100.716 192.303,106.400 197.427,108.600 199.396 C 145.327 232.260,144.089 229.787,138.053 258.200 C 137.399 261.280,136.044 267.670,135.042 272.400 C 134.040 277.130,132.219 285.680,130.995 291.400 C 129.772 297.120,128.430 303.510,128.014 305.600 C 127.597 307.690,126.987 310.539,126.656 311.932 C 126.177 313.955,126.161 314.424,126.578 314.264 C 126.866 314.153,135.268 309.343,145.250 303.573 C 155.233 297.804,165.200 292.048,167.400 290.783 C 169.600 289.518,174.370 286.744,178.000 284.619 C 197.391 273.269,201.790 273.086,218.909 282.915 C 231.491 290.139,235.710 292.571,255.122 303.787 C 265.309 309.673,273.699 314.424,273.766 314.345 C 273.834 314.265,273.484 312.400,272.990 310.200 C 272.083 306.165,270.073 296.747,267.996 286.800 C 267.375 283.830,265.946 277.080,264.819 271.800 C 255.936 230.174,255.664 231.680,275.228 213.991 C 280.163 209.529,285.190 204.961,286.400 203.839 C 287.610 202.718,290.028 200.540,291.774 199.000 C 293.520 197.460,298.934 192.600,303.805 188.200 C 308.677 183.800,314.143 178.874,315.952 177.254 C 317.761 175.634,319.170 174.237,319.083 174.150 C 318.828 173.895,312.876 173.235,279.600 169.770 C 274.430 169.231,266.600 168.429,262.200 167.987 C 234.871 165.239,234.161 164.648,220.604 133.400 C 219.650 131.200,215.326 121.480,210.995 111.800 C 206.664 102.120,202.490 92.715,201.720 90.900 C 200.070 87.010,199.966 86.967,198.810 89.700 " stroke="none" fill="#fbd34b" fill-rule="evenodd"></path><path id="path1" d="M194.601 41.472 C 193.942 41.582,193.312 41.796,193.201 41.947 C 193.091 42.098,191.965 42.541,190.700 42.931 C 189.435 43.322,188.400 43.792,188.400 43.977 C 188.400 44.162,187.966 44.422,187.435 44.555 C 186.314 44.837,184.982 45.886,182.553 48.400 C 179.857 51.190,179.430 51.712,178.794 53.000 C 178.468 53.660,178.102 54.290,177.980 54.400 C 177.468 54.864,175.277 59.124,174.799 60.589 C 174.513 61.463,174.059 62.398,173.790 62.667 C 173.521 62.936,173.059 63.976,172.763 64.978 C 172.467 65.980,172.094 66.800,171.933 66.800 C 171.772 66.800,171.329 67.790,170.947 69.000 C 170.566 70.210,170.136 71.200,169.992 71.200 C 169.848 71.200,169.393 72.190,168.982 73.400 C 168.571 74.610,168.121 75.600,167.982 75.600 C 167.843 75.600,167.386 76.635,166.965 77.900 C 166.544 79.165,165.975 80.438,165.700 80.729 C 165.425 81.019,165.200 81.420,165.200 81.620 C 165.200 81.819,164.560 83.381,163.778 85.091 C 162.996 86.801,162.196 88.560,162.000 89.000 C 161.804 89.440,161.004 91.199,160.222 92.909 C 159.440 94.619,158.800 96.111,158.800 96.225 C 158.800 96.340,158.245 97.641,157.566 99.117 C 155.316 104.011,154.876 104.983,154.000 107.000 C 153.522 108.100,152.802 109.720,152.399 110.600 C 149.877 116.115,149.246 117.558,148.771 118.900 C 148.478 119.725,148.133 120.400,148.002 120.400 C 147.872 120.400,147.429 121.390,147.018 122.600 C 146.607 123.810,146.148 124.800,145.998 124.800 C 145.849 124.800,145.501 125.565,145.225 126.500 C 144.949 127.435,144.402 128.740,144.010 129.400 C 143.618 130.060,143.081 131.275,142.817 132.100 L 142.338 133.600 139.769 133.600 C 138.356 133.600,137.200 133.744,137.200 133.921 C 137.200 134.097,133.015 134.575,127.900 134.984 C 122.785 135.392,118.510 135.844,118.400 135.987 C 118.290 136.131,114.060 136.566,109.000 136.954 C 103.940 137.342,99.440 137.815,99.000 138.004 C 98.560 138.194,94.330 138.642,89.600 139.000 C 84.870 139.358,80.640 139.803,80.200 139.989 C 79.760 140.174,75.530 140.638,70.800 141.018 C 66.070 141.398,62.020 141.842,61.800 142.003 C 61.580 142.164,60.230 142.421,58.800 142.573 C 55.938 142.879,52.822 143.555,52.200 144.005 C 51.980 144.164,50.855 144.602,49.700 144.979 C 48.545 145.356,47.600 145.796,47.600 145.958 C 47.600 146.120,46.970 146.552,46.200 146.919 C 45.430 147.287,44.800 147.764,44.800 147.981 C 44.800 148.197,44.366 148.605,43.835 148.887 C 42.703 149.488,38.958 154.064,38.564 155.329 C 38.414 155.808,38.141 156.298,37.957 156.417 C 37.772 156.536,37.302 157.886,36.911 159.417 C 36.520 160.948,36.052 162.309,35.871 162.441 C 35.389 162.795,35.400 172.427,35.883 172.739 C 36.104 172.883,36.415 173.720,36.574 174.600 C 36.891 176.355,38.960 180.765,39.764 181.400 C 40.042 181.620,40.344 182.000,40.435 182.244 C 40.703 182.967,42.877 185.609,44.648 187.366 C 46.905 189.603,52.792 194.934,53.398 195.290 C 53.670 195.449,54.778 196.439,55.860 197.490 C 56.941 198.540,59.153 200.570,60.775 202.000 C 62.396 203.430,64.303 205.140,65.011 205.800 C 68.521 209.069,72.958 213.032,73.398 213.290 C 73.670 213.449,74.778 214.439,75.860 215.490 C 76.941 216.540,79.153 218.570,80.775 220.000 C 82.396 221.430,84.297 223.140,84.999 223.800 C 87.868 226.500,92.936 231.019,93.398 231.290 C 93.670 231.449,94.868 232.529,96.059 233.690 C 97.250 234.850,99.463 236.880,100.976 238.200 C 106.705 243.198,107.448 244.379,106.007 246.200 C 105.833 246.420,105.380 248.490,105.000 250.800 C 104.620 253.110,104.178 255.180,104.018 255.400 C 103.858 255.620,103.403 257.780,103.006 260.200 C 102.609 262.620,102.149 264.780,101.984 265.000 C 101.819 265.220,101.365 267.380,100.975 269.800 C 100.585 272.220,100.149 274.290,100.005 274.400 C 99.862 274.510,99.416 276.580,99.014 279.000 C 98.613 281.420,98.156 283.580,98.000 283.800 C 97.844 284.020,97.387 286.180,96.986 288.600 C 96.584 291.020,96.134 293.090,95.986 293.200 C 95.837 293.310,95.387 295.515,94.984 298.100 C 94.582 300.685,94.130 302.800,93.980 302.800 C 93.831 302.800,93.388 304.825,92.998 307.300 C 92.607 309.775,92.151 311.980,91.986 312.200 C 91.820 312.420,91.369 314.580,90.983 317.000 C 90.597 319.420,90.142 321.581,89.972 321.803 C 88.818 323.308,88.832 338.868,89.988 339.597 C 90.166 339.708,90.499 340.483,90.728 341.317 C 91.489 344.086,96.585 350.649,98.500 351.327 C 98.885 351.463,99.200 351.743,99.200 351.948 C 99.200 352.153,100.009 352.654,100.999 353.060 C 101.988 353.467,102.798 353.928,102.799 354.085 C 102.800 354.444,106.646 355.600,107.839 355.600 C 108.331 355.600,108.806 355.818,108.895 356.085 C 109.101 356.703,117.207 356.721,118.504 356.106 C 118.997 355.873,120.615 355.373,122.100 354.996 C 123.585 354.619,124.800 354.158,124.800 353.971 C 124.800 353.784,125.497 353.443,126.348 353.214 C 127.199 352.985,128.324 352.471,128.848 352.072 C 129.372 351.673,130.430 351.095,131.200 350.788 C 131.970 350.481,132.780 350.082,133.000 349.901 C 133.748 349.288,138.095 346.800,138.420 346.800 C 138.598 346.800,138.981 346.568,139.271 346.285 C 139.562 346.001,140.520 345.435,141.400 345.026 C 142.280 344.617,143.090 344.153,143.200 343.995 C 143.310 343.837,144.189 343.278,145.154 342.754 C 148.135 341.133,150.134 339.998,151.800 338.980 C 152.680 338.442,154.158 337.637,155.083 337.190 C 156.009 336.743,156.880 336.195,157.017 335.972 C 157.155 335.749,157.973 335.284,158.834 334.940 C 159.695 334.595,160.400 334.167,160.400 333.988 C 160.400 333.809,161.029 333.455,161.797 333.201 C 162.565 332.947,163.330 332.523,163.497 332.259 C 163.664 331.994,164.565 331.440,165.500 331.028 C 166.435 330.616,167.201 330.171,167.201 330.039 C 167.202 329.908,168.012 329.467,169.001 329.060 C 169.991 328.654,170.800 328.186,170.800 328.021 C 170.800 327.856,171.610 327.387,172.600 326.978 C 173.590 326.570,174.400 326.120,174.400 325.979 C 174.400 325.837,175.120 325.397,176.000 325.000 C 176.880 324.603,177.600 324.163,177.600 324.021 C 177.600 323.880,178.410 323.430,179.400 323.022 C 180.390 322.613,181.202 322.172,181.205 322.040 C 181.207 321.908,181.972 321.440,182.905 321.001 C 183.837 320.562,184.780 320.061,185.000 319.888 C 185.819 319.244,190.109 316.800,190.420 316.800 C 190.598 316.800,190.981 316.568,191.271 316.285 C 191.562 316.001,192.520 315.435,193.400 315.026 C 194.280 314.617,195.090 314.153,195.200 313.995 C 195.310 313.837,196.120 313.321,197.000 312.850 C 197.880 312.378,198.915 311.769,199.300 311.498 C 199.855 311.106,200.145 311.106,200.700 311.498 C 201.085 311.769,202.120 312.378,203.000 312.850 C 203.880 313.321,204.690 313.837,204.800 313.995 C 204.910 314.153,205.720 314.617,206.600 315.026 C 207.480 315.435,208.438 316.001,208.729 316.285 C 209.019 316.568,209.402 316.800,209.580 316.800 C 209.890 316.800,214.175 319.240,215.000 319.887 C 215.220 320.059,216.120 320.560,217.000 321.000 C 217.880 321.440,218.690 321.908,218.800 322.041 C 218.910 322.173,219.720 322.617,220.600 323.026 C 221.480 323.435,222.410 323.973,222.666 324.222 C 222.922 324.471,223.687 324.905,224.366 325.186 C 225.045 325.467,225.600 325.818,225.600 325.967 C 225.600 326.115,226.410 326.570,227.400 326.978 C 228.390 327.387,229.200 327.846,229.200 328.000 C 229.200 328.153,229.965 328.617,230.900 329.032 C 231.835 329.446,232.780 329.985,233.000 330.231 C 233.220 330.476,234.030 330.919,234.800 331.215 C 235.570 331.511,236.336 331.975,236.503 332.247 C 236.670 332.518,237.435 332.947,238.203 333.201 C 238.971 333.455,239.600 333.809,239.600 333.988 C 239.600 334.167,240.305 334.595,241.166 334.940 C 242.027 335.284,242.845 335.749,242.983 335.972 C 243.120 336.195,243.991 336.743,244.917 337.190 C 245.842 337.637,247.266 338.407,248.080 338.901 C 248.895 339.396,251.145 340.685,253.080 341.766 C 255.016 342.847,256.690 343.855,256.800 344.006 C 256.910 344.158,257.720 344.617,258.600 345.026 C 259.480 345.435,260.438 346.001,260.729 346.285 C 261.019 346.568,261.402 346.800,261.580 346.800 C 261.905 346.800,266.252 349.288,267.000 349.901 C 267.220 350.082,268.030 350.481,268.800 350.788 C 269.570 351.095,270.628 351.673,271.152 352.072 C 271.676 352.471,272.801 352.985,273.652 353.214 C 274.503 353.443,275.200 353.784,275.200 353.971 C 275.200 354.158,276.415 354.619,277.900 354.996 C 279.385 355.373,281.003 355.873,281.496 356.106 C 282.793 356.721,290.899 356.703,291.105 356.085 C 291.194 355.818,291.669 355.600,292.161 355.600 C 293.354 355.600,297.200 354.444,297.201 354.085 C 297.202 353.928,298.012 353.467,299.001 353.060 C 299.991 352.654,300.800 352.153,300.800 351.948 C 300.800 351.743,301.115 351.463,301.500 351.327 C 303.401 350.654,308.263 344.393,309.210 341.400 C 309.488 340.520,309.855 339.708,310.025 339.597 C 311.168 338.845,311.174 323.313,310.032 321.803 C 309.865 321.581,309.400 319.420,308.999 317.000 C 308.598 314.580,308.156 312.510,308.017 312.400 C 307.878 312.290,307.426 310.085,307.012 307.500 C 306.599 304.915,306.146 302.800,306.004 302.800 C 305.863 302.800,305.418 300.685,305.016 298.100 C 304.613 295.515,304.163 293.310,304.014 293.200 C 303.866 293.090,303.416 291.020,303.014 288.600 C 302.613 286.180,302.156 284.020,302.000 283.800 C 301.844 283.580,301.387 281.420,300.986 279.000 C 300.584 276.580,300.138 274.510,299.995 274.400 C 299.851 274.290,299.415 272.220,299.025 269.800 C 298.635 267.380,298.181 265.220,298.016 265.000 C 297.851 264.780,297.391 262.620,296.994 260.200 C 296.597 257.780,296.142 255.620,295.982 255.400 C 295.822 255.180,295.380 253.110,295.000 250.800 C 294.620 248.490,294.167 246.420,293.993 246.200 C 292.542 244.366,293.232 243.285,299.225 238.000 C 300.847 236.570,303.059 234.540,304.140 233.490 C 305.222 232.439,306.330 231.449,306.602 231.290 C 307.042 231.032,311.479 227.069,314.989 223.800 C 315.697 223.140,317.604 221.430,319.225 220.000 C 320.847 218.570,323.059 216.540,324.140 215.490 C 325.222 214.439,326.330 213.449,326.602 213.290 C 327.031 213.038,330.820 209.659,335.000 205.800 C 335.715 205.140,337.610 203.430,339.210 202.000 C 340.811 200.570,343.017 198.540,344.114 197.490 C 345.210 196.439,346.331 195.449,346.605 195.290 C 347.175 194.958,352.855 189.803,355.336 187.366 C 357.107 185.627,359.292 182.980,359.565 182.244 C 359.656 182.000,359.958 181.620,360.236 181.400 C 361.040 180.765,363.109 176.355,363.426 174.600 C 363.585 173.720,363.884 172.890,364.090 172.756 C 364.539 172.465,364.559 162.762,364.112 162.431 C 363.940 162.304,363.480 160.948,363.089 159.417 C 362.698 157.886,362.245 156.536,362.081 156.417 C 361.918 156.298,361.546 155.660,361.255 155.000 C 360.713 153.767,360.543 153.543,358.434 151.269 C 357.755 150.537,357.200 149.784,357.200 149.596 C 357.200 149.408,356.840 149.140,356.400 149.000 C 355.959 148.860,355.426 148.423,355.215 148.028 C 355.004 147.633,354.284 147.083,353.615 146.806 C 352.947 146.529,352.400 146.159,352.400 145.984 C 352.400 145.808,351.455 145.356,350.300 144.979 C 349.145 144.602,348.020 144.164,347.800 144.005 C 347.178 143.555,344.062 142.879,341.200 142.573 C 339.770 142.421,338.420 142.164,338.200 142.003 C 337.980 141.842,333.930 141.398,329.200 141.018 C 324.470 140.638,320.240 140.173,319.800 139.985 C 319.360 139.798,314.950 139.333,310.000 138.953 C 305.050 138.573,300.910 138.143,300.800 137.998 C 300.690 137.852,296.370 137.400,291.200 136.993 C 286.030 136.586,281.710 136.134,281.600 135.990 C 281.490 135.845,277.215 135.392,272.100 134.984 C 266.985 134.575,262.800 134.097,262.800 133.921 C 262.800 133.744,261.644 133.600,260.231 133.600 L 257.662 133.600 257.195 132.185 C 256.938 131.407,256.207 129.742,255.569 128.485 C 254.932 127.228,254.408 125.885,254.405 125.500 C 254.402 125.115,254.249 124.800,254.065 124.800 C 253.881 124.800,253.393 123.810,252.982 122.600 C 252.571 121.390,252.128 120.400,251.998 120.400 C 251.867 120.400,251.522 119.725,251.229 118.900 C 250.754 117.558,250.123 116.115,247.601 110.600 C 247.198 109.720,246.478 108.100,246.000 107.000 C 245.522 105.900,244.802 104.280,244.399 103.400 C 241.877 97.885,241.246 96.442,240.771 95.100 C 240.478 94.275,240.115 93.600,239.963 93.600 C 239.811 93.600,239.573 93.145,239.433 92.589 C 239.184 91.597,238.270 89.467,235.962 84.499 C 235.323 83.123,234.800 81.831,234.800 81.628 C 234.800 81.424,234.575 81.019,234.300 80.729 C 234.025 80.438,233.456 79.165,233.035 77.900 C 232.614 76.635,232.136 75.600,231.972 75.600 C 231.808 75.600,231.363 74.610,230.982 73.400 C 230.602 72.190,230.168 71.200,230.018 71.200 C 229.869 71.200,229.434 70.210,229.053 69.000 C 228.671 67.790,228.221 66.800,228.053 66.800 C 227.884 66.800,227.434 65.810,227.053 64.600 C 226.671 63.390,226.217 62.400,226.044 62.400 C 225.870 62.400,225.487 61.635,225.193 60.700 C 224.899 59.765,224.454 58.730,224.204 58.400 C 223.954 58.070,223.419 57.035,223.014 56.100 C 222.610 55.165,222.170 54.400,222.037 54.400 C 221.904 54.400,221.541 53.815,221.231 53.100 C 220.651 51.764,220.418 51.475,217.447 48.400 C 215.018 45.886,213.686 44.837,212.565 44.555 C 212.034 44.422,211.600 44.162,211.600 43.977 C 211.600 43.792,210.565 43.322,209.300 42.931 C 208.035 42.541,206.881 42.051,206.734 41.843 C 206.450 41.438,196.603 41.137,194.601 41.472 M201.720 90.900 C 202.490 92.715,206.664 102.120,210.995 111.800 C 215.326 121.480,219.650 131.200,220.604 133.400 C 234.161 164.648,234.871 165.239,262.200 167.987 C 266.600 168.429,274.430 169.231,279.600 169.770 C 312.876 173.235,318.828 173.895,319.083 174.150 C 319.170 174.237,317.761 175.634,315.952 177.254 C 314.143 178.874,308.677 183.800,303.805 188.200 C 298.934 192.600,293.520 197.460,291.774 199.000 C 290.028 200.540,287.610 202.718,286.400 203.839 C 285.190 204.961,280.163 209.529,275.228 213.991 C 255.664 231.680,255.936 230.174,264.819 271.800 C 265.946 277.080,267.375 283.830,267.996 286.800 C 270.073 296.747,272.083 306.165,272.990 310.200 C 273.484 312.400,273.834 314.265,273.766 314.345 C 273.699 314.424,265.309 309.673,255.122 303.787 C 235.710 292.571,231.491 290.139,218.909 282.915 C 201.790 273.086,197.391 273.269,178.000 284.619 C 174.370 286.744,169.600 289.518,167.400 290.783 C 165.200 292.048,155.233 297.804,145.250 303.573 C 135.268 309.343,126.866 314.153,126.578 314.264 C 126.161 314.424,126.177 313.955,126.656 311.932 C 126.987 310.539,127.597 307.690,128.014 305.600 C 128.430 303.510,129.772 297.120,130.995 291.400 C 132.219 285.680,134.040 277.130,135.042 272.400 C 136.044 267.670,137.399 261.280,138.053 258.200 C 144.089 229.787,145.327 232.260,108.600 199.396 C 106.400 197.427,100.716 192.303,95.969 188.008 C 91.221 183.714,85.857 178.874,84.048 177.254 C 82.239 175.634,80.830 174.237,80.917 174.150 C 81.172 173.895,87.124 173.235,120.400 169.770 C 125.570 169.231,133.400 168.429,137.800 167.987 C 155.334 166.224,160.069 164.882,165.140 160.239 C 168.852 156.841,169.537 155.490,183.822 123.400 C 186.075 118.340,190.168 109.160,192.919 103.000 C 195.671 96.840,198.321 90.855,198.810 89.700 C 199.966 86.967,200.070 87.010,201.720 90.900 " stroke="none" fill="#040404" fill-rule="evenodd"></path></g></svg>